<svg id="Ebene_1" data-name="Ebene 1" xmlns="http://www.w3.org/2000/svg" xmlns:xlink="http://www.w3.org/1999/xlink" viewBox="0 0 100 166.01"><defs><style>.cls-1{fill:none;}.cls-2{fill:#fff;}.cls-3{clip-path:url(#clip-path);}</style><clipPath id="clip-path" transform="translate(-1)"><circle class="cls-1" cx="51" cy="50" r="50"/></clipPath></defs><g id="skyla"><path class="cls-2" d="M19.23,152.16c-.41,3.68-4,5.43-7.89,5.3-4.46-.12-6.34-2.5-7.43-2.33-.58.12-.71,1-.71,1.83v.63H2.91V149.2H3.2v1.58c0,4.18,4.64,6.1,7.64,6.22,3.22.17,6.35-1.08,6.52-3.75s-2.55-3.68-6.56-5.22c-4.51-1.75-7.22-3.51-6.64-7.06s5.47-4.3,6.81-4.25c4.22.12,5.26,1.79,6,1.83.5,0,.59-.58.59-1.17v-.79h.25V145h-.25V143.4c0-3.85-1.72-6.06-6.68-6.22-2.22-.09-5.1,1.16-5,3.75,0,2.34,2.58,3.18,5.38,4.39C14.48,146.69,19.69,148,19.23,152.16Z" transform="translate(-1)"/><path class="cls-2" d="M43.82,156.88v.33H39.48A3,3,0,0,1,37,155.63c-.55-.84-6-8.89-6.81-10l-3.63,3.5v5.22c0,2.09.38,2.55,2.51,2.55h.83v.33H20.53v-.33h.83c2.13,0,2.51-.46,2.51-2.55V130.87c0-2.09-.38-2.5-2.51-2.5h-.83V128h6v20.62l9.39-9c1.26-1.26,1.3-2.22-.66-2.22h-.84V137h7.18v.37h-.83c-2.09,0-3.13,1.05-4.68,2.51l-4.13,4,7.14,10.43a5.21,5.21,0,0,0,4.05,2.55Z" transform="translate(-1)"/><path class="cls-2" d="M65.45,137v.37h-.34c-1.88,0-2.5.84-3.21,2.55l-7.31,17.28c-3.46,7.89-6.84,9.15-10.35,8.73-1-.13-1.71-.42-1.63-1.25s.75-.92,1.8-.8c4.17.59,6.47.46,9.68-6.68l-7.35-17.28c-.83-2-1.42-2.55-3.54-2.55h-.46V137h8.68v.37h-.59c-2.12,0-2.17.59-1.33,2.55l6,14.07,5.93-14.07c.87-2.09.33-2.55-1.8-2.55h-.08V137Z" transform="translate(-1)"/><path class="cls-2" d="M74.38,156.88v.33H65v-.33h.83c2.09,0,2.51-.46,2.51-2.55V130.87c0-2.09-.42-2.5-2.51-2.5H65V128h6v26.34c0,2.09.37,2.55,2.5,2.55Z" transform="translate(-1)"/><path class="cls-2" d="M97.09,155a5.11,5.11,0,0,1-4,2.42c-2,0-3.38-1.17-3.38-3.63v-3.17c-.42,2.25-2.46,6.55-7,6.8-3.3.17-7.1-1.33-7.23-5-.16-4.39,3.76-5.51,8.48-6.31,4-.67,5.3-2.29,5.8-3.21,0-4.93-2.21-5.93-4.93-5.93-2.21,0-3.21,1.8-4.55,3.09-1,1-1.87,1-2.37.38s-.17-1.3.58-1.8a13.06,13.06,0,0,1,6.43-2c4.76,0,7.51,2.33,7.51,7.68v9.68c0,2.13.46,2.8,1.3,2.88,1,.13,2.38-.83,3.17-2.08Zm-7.35-11.56c-.88,1-1.84,2.25-6.3,3.13-2.55.54-5.76,1.84-5.55,5.72.2,3.3,2.92,4.76,5.92,4.47,3.43-.34,5.93-4.43,5.93-8.14Z" transform="translate(-1)"/></g><g class="cls-3"><image width="2183" height="2183" transform="scale(0.05)" xlink:href="IMG_4440.JPG"/></g></svg>