<svg id="Ebene_1" data-name="Ebene 1" xmlns="http://www.w3.org/2000/svg" viewBox="0 0 94.18 141.55"><defs><style>.cls-1{fill:#fff;}</style></defs><g id="icon"><path class="cls-1" d="M83.3,52.86c.64.41.5,1,.42,1.61a49,49,0,0,1-1.07,5.78,29.65,29.65,0,0,1-3.28,8.33,16.06,16.06,0,0,1-4,4.58,10,10,0,0,1-4.79,2.26A11.36,11.36,0,0,1,63.49,74c-4.49-2.44-7.13-6.42-9.28-10.83A54.39,54.39,0,0,1,50.92,54c-.56,1.72-1.08,3.39-1.65,5a34.3,34.3,0,0,1-5,9.7A18.32,18.32,0,0,1,38.4,74a11.08,11.08,0,0,1-8.27,1.23,10.29,10.29,0,0,1-4.44-2.61c-4.33-4.07-6-9.43-7.12-15-.23-1.11-.38-2.24-.5-3.37-.05-.48-.15-1.05.45-1.36a.53.53,0,0,1,.66,0c.56.18.66.69.77,1.15A25.6,25.6,0,0,0,23.5,62.3a8.63,8.63,0,0,0,3.49,3,7.14,7.14,0,0,0,4.63.5A7.83,7.83,0,0,0,35.9,63.1c2.23-2.49,2.76-5.6,3.14-8.75.11-1,.13-1.91.19-2.86a5.79,5.79,0,0,0,0-1.61c0-.07,0-.09-.09-.06s-.06.08-.09.12a42.94,42.94,0,0,1-2.49,9.92,8,8,0,0,1-3.44,3.85A6.45,6.45,0,0,1,25,62.15c-.19-.23-.32-.34,0-.63a22.24,22.24,0,0,0,2.89-2.77,30.85,30.85,0,0,0,3.41-5c.09-.15.13-.27,0-.39s-.24.06-.33.15A12.72,12.72,0,0,1,26,56.55a10.62,10.62,0,0,1-3.3.55.7.7,0,0,1-.78-.52c-.5-1.22-.69-2.52-1.18-3.74A2.21,2.21,0,0,0,19,51.29a.32.32,0,0,0-.47,0,2.67,2.67,0,0,0-1.63,3.1,2.13,2.13,0,0,1,0,1,8.15,8.15,0,0,1-3.29-1.89c-3.47-3.28-4.92-7.6-6.1-12.06a2.73,2.73,0,0,1,0-2.17,1.19,1.19,0,0,1,1.12-.66,1.12,1.12,0,0,1,1.16.7,26.1,26.1,0,0,0,2.87,5.49,11.4,11.4,0,0,0,4.17,3.75,5.63,5.63,0,0,0,4.25.3,8.16,8.16,0,0,0,3.68-2.52C28.54,42.11,30,36.94,31,31.62a53.87,53.87,0,0,0,.78-7.16H70.24a53.64,53.64,0,0,0,2,12.2,25.07,25.07,0,0,0,4.35,9c1.82,2.24,4,3.94,7.2,3.35a7.07,7.07,0,0,0,3.47-1.87,18.89,18.89,0,0,0,4.67-7.34c.26-.66.61-1.21,1.43-1.19a1.58,1.58,0,0,1,1.37,2.08,29.66,29.66,0,0,1-1.9,6.09,20.64,20.64,0,0,1-3.82,6,9.2,9.2,0,0,1-4.22,2.76,7.2,7.2,0,0,0,0-2.62c-.31-1-.79-1.55-1.61-1.62a2,2,0,0,0-2,1.41c-.53,1.28-.72,2.68-1.27,4a.56.56,0,0,1-.61.42,10.58,10.58,0,0,1-6.28-2.16,17.41,17.41,0,0,1-2-1.7.2.2,0,0,0-.3,0A26.53,26.53,0,0,0,75,59.61a12.48,12.48,0,0,0,1.79,1.62c.34.23.38.43.06.81a6.4,6.4,0,0,1-7.59,2,7.78,7.78,0,0,1-4.39-4.88,49.51,49.51,0,0,1-2.13-8.92c-.18-.18-.13-.42-.19-.53a12.75,12.75,0,0,0,0,1.94,21.55,21.55,0,0,0,1.65,9,9.42,9.42,0,0,0,4.5,4.65,7,7,0,0,0,5,.39,7.5,7.5,0,0,0,3.84-2.55,23.55,23.55,0,0,0,4.17-8.9c.15-.53.18-1.15.84-1.37A.55.55,0,0,1,83.3,52.86Z" transform="translate(-2.91 -24.46)"/><path class="cls-1" d="M74.25,39.67a13.74,13.74,0,0,0,1.7,1,6.43,6.43,0,0,0,4.57,1A5.5,5.5,0,0,0,84,39.24a18.54,18.54,0,0,0,2.73-8.64,1.54,1.54,0,0,1,.69-1.29,1.13,1.13,0,0,1,1.64.94c.7,4.4.77,8.76-1.18,12.9a9.06,9.06,0,0,1-3.58,4.13,4.22,4.22,0,0,1-4-.11,10.14,10.14,0,0,1-4-3.58A18.26,18.26,0,0,1,74.25,39.67Z" transform="translate(-2.91 -24.46)"/><path class="cls-1" d="M27.66,39.73a11.48,11.48,0,0,1-1.38,3A12.58,12.58,0,0,1,23,46.43a5.53,5.53,0,0,1-4.78,1.08,5.2,5.2,0,0,1-2.45-1.94C13,42.2,12.42,38.17,12.58,34A23.49,23.49,0,0,1,13,30.43c.16-.8.59-1.27,1.2-1.25s1.08.56,1.16,1.39a19.7,19.7,0,0,0,2.21,7.87c1.27,2.26,3.31,3.78,5.9,3.24A10.44,10.44,0,0,0,27.66,39.73Z" transform="translate(-2.91 -24.46)"/><path class="cls-1" d="M85,63.76a11.42,11.42,0,0,0,6.76-3.28,19.88,19.88,0,0,0,2.76-3.11.82.82,0,0,1,1.11-.25,1.09,1.09,0,0,1,.45,1.35,17.85,17.85,0,0,1-1.2,3.25,20,20,0,0,1-4.59,6.19,17.1,17.1,0,0,1-3.18,2.19,15.5,15.5,0,0,1-8.24,2.06l-.4,0a9.7,9.7,0,0,1,1.29-1.93,27.7,27.7,0,0,0,2.85-5.84,1.52,1.52,0,0,1,.18-.33c.42-.24.88-.1,1.33-.13C84.42,63.87,84.73,64,85,63.76Z" transform="translate(-2.91 -24.46)"/><path class="cls-1" d="M19,64.05c.67,1.49,1.18,3,2,4.48A22.79,22.79,0,0,0,23,71.46a4,4,0,0,1,.41.68,14.68,14.68,0,0,1-6.67-1.22,21.62,21.62,0,0,1-3.18-1.72,17.34,17.34,0,0,1-5.07-5.27A20.23,20.23,0,0,1,6,58.58c-.18-.64-.32-1.28.44-1.69a.51.51,0,0,1,.64,0c.77.5,1.13,1.35,1.73,2A19.18,19.18,0,0,0,12.35,62a10.41,10.41,0,0,0,4.8,1.74c.33.22.7.11,1.05.13S18.78,63.83,19,64.05Z" transform="translate(-2.91 -24.46)"/></g><g id="skyla"><path class="cls-1" d="M19.23,152.16c-.41,3.68-4,5.43-7.89,5.3-4.46-.12-6.34-2.5-7.43-2.33-.58.12-.71,1-.71,1.83v.63H2.91V149.2H3.2v1.58c0,4.18,4.64,6.1,7.64,6.22,3.22.17,6.35-1.08,6.52-3.75s-2.55-3.68-6.56-5.22c-4.51-1.75-7.22-3.51-6.64-7.06s5.47-4.3,6.81-4.25c4.22.12,5.26,1.79,6,1.83.5,0,.59-.58.59-1.17v-.79h.25V145h-.25V143.4c0-3.85-1.72-6.06-6.68-6.22-2.22-.09-5.1,1.16-5,3.75,0,2.34,2.58,3.18,5.38,4.39C14.48,146.69,19.69,148,19.23,152.16Z" transform="translate(-2.91 -24.46)"/><path class="cls-1" d="M43.82,156.88v.33H39.48A3,3,0,0,1,37,155.63c-.55-.84-6-8.89-6.81-10l-3.63,3.5v5.22c0,2.09.38,2.55,2.51,2.55h.83v.33H20.53v-.33h.83c2.13,0,2.51-.46,2.51-2.55V130.87c0-2.09-.38-2.5-2.51-2.5h-.83V128h6v20.62l9.39-9c1.26-1.26,1.3-2.22-.66-2.22h-.84V137h7.18v.37h-.83c-2.09,0-3.13,1.05-4.68,2.51l-4.13,4,7.14,10.43a5.21,5.21,0,0,0,4.05,2.55Z" transform="translate(-2.91 -24.46)"/><path class="cls-1" d="M65.45,137v.37h-.34c-1.88,0-2.5.84-3.21,2.55l-7.31,17.28c-3.46,7.89-6.84,9.15-10.35,8.73-1-.13-1.71-.42-1.63-1.25s.75-.92,1.8-.8c4.17.59,6.47.46,9.68-6.68l-7.35-17.28c-.83-2-1.42-2.55-3.54-2.55h-.46V137h8.68v.37h-.59c-2.12,0-2.17.59-1.33,2.55l6,14.07,5.93-14.07c.87-2.09.33-2.55-1.8-2.55h-.08V137Z" transform="translate(-2.91 -24.46)"/><path class="cls-1" d="M74.38,156.88v.33H65v-.33h.83c2.09,0,2.51-.46,2.51-2.55V130.87c0-2.09-.42-2.5-2.51-2.5H65V128h6v26.34c0,2.09.37,2.55,2.5,2.55Z" transform="translate(-2.91 -24.46)"/><path class="cls-1" d="M97.09,155a5.11,5.11,0,0,1-4,2.42c-2,0-3.38-1.17-3.38-3.63v-3.17c-.42,2.25-2.46,6.55-7,6.8-3.3.17-7.1-1.33-7.23-5-.16-4.39,3.76-5.51,8.48-6.31,4-.67,5.3-2.29,5.8-3.21,0-4.93-2.21-5.93-4.93-5.93-2.21,0-3.21,1.8-4.55,3.09-1,1-1.87,1-2.37.38s-.17-1.3.58-1.8a13.06,13.06,0,0,1,6.43-2c4.76,0,7.51,2.33,7.51,7.68v9.68c0,2.13.46,2.8,1.3,2.88,1,.13,2.38-.83,3.17-2.08Zm-7.35-11.56c-.88,1-1.84,2.25-6.3,3.13-2.55.54-5.76,1.84-5.55,5.72.2,3.3,2.92,4.76,5.92,4.47,3.43-.34,5.93-4.43,5.93-8.14Z" transform="translate(-2.91 -24.46)"/></g></svg>